<?xml version="1.0" encoding="UTF-8" standalone="no"?>
<!DOCTYPE svg PUBLIC "-//W3C//DTD SVG 1.1//EN" "http://www.w3.org/Graphics/SVG/1.1/DTD/svg11.dtd">
<svg width="100%" height="100%" viewBox="0 0 336 336" version="1.1" xmlns="http://www.w3.org/2000/svg" xmlns:xlink="http://www.w3.org/1999/xlink" xml:space="preserve" xmlns:serif="http://www.serif.com/" style="fill-rule:evenodd;clip-rule:evenodd;stroke-linejoin:round;stroke-miterlimit:2;">
    <rect id="画板1" x="0" y="0" width="336" height="336" style="fill:none;"/>
    <g id="画板11" serif:id="画板1">
        <path d="M90.688,112.95L245.312,112.95L267.543,134.712L267.543,201.715L245.312,223.476L90.688,223.476L68.457,201.715L68.457,134.712L90.688,112.95ZM245.312,134.712L90.688,134.712L90.688,201.288L245.312,201.288L245.312,134.712Z" style="fill:rgb(68,106,252);"/>
        <path d="M245.312,223.476L245.312,112.95L267.543,134.712L267.543,201.715L245.312,223.476Z" style="fill:rgb(0,53,255);"/>
        <path d="M90.688,223.263L68.457,201.502L68.457,134.498L90.688,112.737L90.688,223.263Z" style="fill:rgb(0,53,255);"/>
        <path d="M144.403,157L201.297,157L201.297,169.235L191.532,179L134.639,179L134.639,166.765L144.403,157Z" style="fill:rgb(144,166,255);"/>
        <g transform="matrix(0.99724,0,0,0.99258,0.310843,1.031678)">
            <rect x="112.639" y="157.134" width="22.061" height="22.164" style="fill:rgb(0,53,255);"/>
        </g>
    </g>
</svg>
